<svg viewBox="0 0 1000 1000" xmlns="http://www.w3.org/2000/svg">
<g>
<path fill="currentColor" d="M886.2,846.4c-64.2,0-100.8-38.4-143.2-82.8c-15-15.7-30.5-32-48.7-48.2c-47.5-42.4-95.2-48.2-139.8-48.2c-8,0-15.7,0.2-23.2,0.4c-7.2,0.2-14.1,0.3-20.7,0.3h-21.5c-6.6,0-13.5-0.2-20.7-0.3c-7.5-0.2-15.2-0.4-23.2-0.4c-44.5,0-92.3,5.8-139.8,48.2c-18.1,16.2-33.6,32.5-48.7,48.2c-42.4,44.4-79,82.8-143.2,82.8c-25,0-45.9-9.2-62.1-27.3C10.1,772.7,0,667.6,19.8,488.4C47.1,241.5,160,153.6,256.5,153.6c34.8,0,58.6,14.3,83.9,29.5c34.8,20.9,74.3,44.6,159.6,44.6c85.4,0,124.8-23.7,159.6-44.6c25.3-15.2,49.1-29.5,83.9-29.5c96.5,0,209.4,88,236.7,334.8c19.8,179.2,9.7,284.3-31.9,330.7C932.1,837.2,911.2,846.4,886.2,846.4z M554.6,635.6c48.4,0,105.3,6.7,160.8,56.2c19.1,17,35,33.8,50.5,49.9c40.4,42.4,69.6,73,120.3,73c15.8,0,28.5-5.5,38.6-16.8c34.2-38.2,42.2-141.2,24-306.1c-25-226.1-122.4-306.7-205.3-306.7c-26,0-44.4,11-67.6,25c-36.4,21.9-81.8,49.1-175.9,49.1c-94.1,0-139.5-27.2-175.9-49.1c-23.2-13.9-41.6-25-67.6-25c-82.8,0-180.3,80.6-205.3,306.7C33,656.8,41,759.8,75.2,798c10.1,11.3,22.8,16.8,38.6,16.8c50.6,0,79.9-30.6,120.3-73c15.4-16.2,31.4-32.9,50.5-49.9c65-58,131.9-57.1,184.8-55.8c6.9,0.2,13.6,0.3,19.9,0.3h21.5c6.4,0,13-0.2,19.9-0.3C538.3,635.8,546.3,635.6,554.6,635.6z"/>
<path fill="currentColor" d="M793.7,356.3c0,26.2-21.2,47.4-47.4,47.4s-47.4-21.2-47.4-47.4c0-26.2,21.2-47.4,47.4-47.4C772.5,308.8,793.7,330.1,793.7,356.3z"/>
<path fill="currentColor" d="M793.7,545.9c0,26.2-21.2,47.4-47.4,47.4s-47.4-21.2-47.4-47.4c0-26.2,21.2-47.4,47.4-47.4C772.5,498.5,793.7,519.7,793.7,545.9z"/>
<path fill="currentColor" d="M841.1,498.5c-26.2,0-47.4-21.2-47.4-47.4c0-26.2,21.2-47.4,47.4-47.4c26.2,0,47.4,21.2,47.4,47.4C888.5,477.3,867.3,498.5,841.1,498.5z"/>
<path fill="currentColor" d="M651.5,498.5c-26.2,0-47.4-21.2-47.4-47.4c0-26.2,21.2-47.4,47.4-47.4c26.2,0,47.4,21.2,47.4,47.4C698.9,477.3,677.6,498.5,651.5,498.5z"/>
<path fill="currentColor" d="M377.5,419.5h-79v-79c0-17.5-14.2-31.6-31.6-31.6c-17.5,0-31.6,14.2-31.6,31.6v79h-79c-17.5,0-31.6,14.2-31.6,31.6c0,17.5,14.2,31.6,31.6,31.6h79v79c0,17.5,14.2,31.6,31.6,31.6c17.5,0,31.6-14.2,31.6-31.6v-79h79c17.5,0,31.6-14.2,31.6-31.6C409.1,433.6,395,419.5,377.5,419.5z"/></g>  
</svg>