<svg viewBox="0 0 1000 1000" xmlns="http://www.w3.org/2000/svg">
<g><g transform="translate(0.000000,511.000000) scale(0.100000,-0.100000)">
<path fill="currentColor" d="M1184.5,3343.4c-222-25.5-308.8-66.3-344.5-163.3c-15.3-38.3-25.5-944.2-25.5-2309.4c0-2437-2.6-2401.3,135.2-2434.5c35.7-10.2,176.1-2.5,313.9,12.8c561.4,66.4,1092.2-33.2,2370.7-449.1c364.9-119.9,821.7-262.8,1013.1-319l352.2-102.1l275.6,81.7c150.6,43.4,589.5,181.2,974.8,306.2c1352.5,441.5,1906.2,548.6,2498.3,482.3c316.4-35.7,372.6-17.9,410.8,130.2c17.9,63.8,23,888,20.4,2357.9l-7.6,2263.5l-68.9,58.7c-91.9,79.1-270.5,102.1-773.2,99.5c-724.7-5.1-1179-109.7-2597.8-604.8l-732.4-255.2l-786,273c-865.1,298.6-1260.6,418.5-1663.8,497.6C2031.8,3371.5,1618.4,3394.4,1184.5,3343.4z M2588.1,2401.8c265.4-45.9,645.6-165.9,1237.6-385.3c564-211.8,574.2-216.9,574.2-285.8c0-135.3-48.5-132.7-472.1,23c-1127.9,418.5-1388.2,482.3-1913.9,467c-188.8-2.5-359.8,2.6-375.1,12.8c-45.9,28.1-40.8,107.2,5.1,145.5C1733.2,2452.8,2235.9,2465.6,2588.1,2401.8z M8334.8,2391.6c61.2-40.8,79.1-125,30.6-155.7c-17.9-10.2-232.2-20.4-479.8-23c-520.6-5.1-666-35.7-1337.2-283.3c-883-326.6-880.4-326.6-923.8-290.9c-23,20.4-38.3,63.8-33.2,99.5c7.6,58.7,43.4,79.1,364.9,199.1c860,324.1,1270.8,449.1,1671.5,502.7C7809.1,2463,8271.1,2432.4,8334.8,2391.6z M2779.4,1654.1c273.1-63.8,655.8-191.4,1288.7-431.3c326.6-122.5,357.3-140.4,364.9-201.6c5.1-48.5-7.7-76.6-43.4-97c-43.4-20.4-155.7,12.8-632.9,188.8c-816.6,301.1-1008,354.7-1421.4,398.1c-150.6,15.3-311.3,15.3-426.2,2.5c-117.4-15.3-204.1-15.3-232.2,0c-48.5,25.5-63.8,137.8-17.9,163.3C1786.8,1758.7,2389,1746,2779.4,1654.1z M8314.4,1692.4c66.3-35.7,71.4-145.5,7.7-178.6c-30.6-15.3-114.8-15.3-237.3,0c-444,56.1-882.9-40.8-1919-426.2c-410.9-153.1-515.5-183.7-556.3-160.8c-35.7,17.9-48.5,45.9-43.4,94.4c7.7,63.8,40.8,81.7,569.1,280.7c594.6,224.6,990.1,347.1,1311.7,403.2C7671.4,1743.4,8230.2,1735.7,8314.4,1692.4z M2590.6,988c125-23,341.9-74,482.3-114.8c293.5-86.8,1337.2-472.1,1372.9-507.8c12.8-12.8,17.9-53.6,7.7-89.3c-25.5-99.5-107.2-86.8-597.1,97C2840.7,755.8,2345.6,865.6,1911.8,801.8c-102.1-15.3-183.7-15.3-209.3,0c-51,25.5-61.2,135.2-15.3,163.3C1794.4,1031.4,2271.6,1041.6,2590.6,988z M8286.3,977.8c68.9-35.7,76.6-142.9,12.8-178.6c-28-12.8-104.6-12.8-199,2.6c-395.5,63.8-967.1-53.6-1850.1-385.3c-301.1-114.8-579.3-206.7-617.5-206.7c-53.6,0-74,15.3-86.8,63.8c-15.3,63.8,23,140.4,71.4,140.4c12.8,0,283.3,97,602.2,214.4c918.7,339.4,1184.1,400.6,1689.3,387.9C8095,1013.6,8250.6,995.7,8286.3,977.8z M2628.9,273.5c117.4-20.4,316.4-66.3,441.5-102.1c367.5-107.2,1378-490,1406.1-533.3c33.2-53.6-12.8-127.6-81.7-137.8c-30.6-5.1-316.4,89.3-640.5,209.3c-890.6,329.2-1247.9,408.3-1778.6,393l-280.7-7.6l-7.7,66.3c-12.8,119.9,51,140.4,469.5,148C2299.7,309.2,2511.5,293.9,2628.9,273.5z M8276.2,263.3c25.5-20.4,40.8-63.8,35.7-102.1l-7.7-66.3l-306.2,7.6c-528.2,15.3-867.6-61.2-1793.9-405.7c-301.1-112.3-569.1-201.6-599.7-196.5c-68.9,10.2-114.8,84.2-81.7,137.8C5550.8-321,6301-30.1,6757.8,117.9c232.2,74,474.6,135.3,717.1,178.6c35.7,5.1,219.5,10.2,410.8,7.7C8140.9,299,8245.5,288.8,8276.2,263.3z M2720.8-451.2c426.2-81.7,1725-541,1773.5-622.7c30.6-56.1-17.9-145.5-81.7-145.5c-25.5,0-293.5,91.9-592,201.6c-946.7,352.2-1270.8,426.2-1773.5,400.7c-290.9-12.8-313.9-10.2-339.4,33.2c-35.7,71.4-5.1,127.6,86.8,153.1C1939.9-387.4,2455.4-400.1,2720.8-451.2z M8191.9-428.2c99.6-28.1,135.3-89.3,94.4-160.8c-20.4-35.7-63.8-40.8-334.3-28.1c-502.7,25.5-826.8-48.5-1773.5-400.7c-298.6-109.7-566.5-201.6-592-201.6c-63.8,0-112.3,89.3-81.7,142.9c43.4,79.1,1314.2,533.3,1727.6,622.6C7490.2-400.1,8038.8-384.8,8191.9-428.2z"/>
<path fill="currentColor" d="M153.6,2440C100,2371.2,100,2358.4,100,168.9v-2202.2l61.2-71.5c58.7-68.9,63.8-68.9,464.4-86.7c798.7-35.7,1347.4-155.7,2773.9-599.7c1577.1-490,1758.2-487.4,3452.7,68.9c1148.3,375.1,1668.9,489.9,2388.5,530.8c214.4,12.8,423.6,22.9,467,22.9c48.5,0,94.4,23,132.7,68.9l58.7,66.4V168.9c0,2587.6,33.2,2337.5-308.8,2337.5h-201.6L9383.7,493c-7.7-1998.1-7.7-2015.9-61.2-2087.4c-28.1-38.3-91.9-97-137.8-127.6c-79.1-56.1-97-56.1-546.1-43.4c-655.8,23-992.7-38.3-1949.6-352.2C6079-2314,5050.6-2622.8,4997-2622.8c-63.8,0-926.3,257.7-1579.6,472.1c-1046.3,342-1423.9,410.9-2079.8,385.3c-426.2-15.3-438.9-15.3-523.1,40.8c-45.9,33.2-109.7,91.9-137.8,130.1c-53.6,71.5-53.6,89.3-61.2,2087.4l-5.1,2013.4H408.8C219.9,2506.4,202.1,2501.3,153.6,2440z"/></g></g>
</svg>
